<svg xmlns="http://www.w3.org/2000/svg" width="19.054" height="19.054" viewBox="0 0 19.054 19.054">
  <g id="noun_brand_2451036" transform="translate(-2 -2)">
    <g id="Group_6915" data-name="Group 6915" transform="translate(2 2)">
      <path id="Path_30881" data-name="Path 30881" d="M19.783,10v.635a.635.635,0,0,1,.635.635V20.8H2.635V11.27a.635.635,0,0,1,.635-.635V10A1.27,1.27,0,0,0,2,11.27v10.8a1.27,1.27,0,0,0,1.27,1.27H9.512l-.762,2.54H8.034v.635H15.02v-.635H14.3l-.762-2.54h6.242a1.27,1.27,0,0,0,1.27-1.27V11.27A1.27,1.27,0,0,0,19.783,10ZM13.641,25.878H9.413l.762-2.54h2.7Zm6.778-3.811a.635.635,0,0,1-.635.635H3.27a.635.635,0,0,1-.635-.635v-.635H20.419Z" transform="translate(-2 -7.46)" fill="#fff"/>
      <path id="Path_30882" data-name="Path 30882" d="M8.635,3.27a.635.635,0,0,1,.635-.635H19.432v1.27h-2.54A.318.318,0,0,0,16.667,4L10.316,10.35a.318.318,0,0,0,0,.449l3.811,3.811a.318.318,0,0,0,.449,0l6.351-6.351a.318.318,0,0,0,.093-.225V5.811h1.588V14.7h.635V5.493c0-.007,0-.013,0-.019a.318.318,0,0,0-.017-.083c0-.01-.006-.02-.01-.03a.318.318,0,0,0-.064-.093L19.973,2.093a.308.308,0,0,0-.093-.064.286.286,0,0,0-.032-.011A.314.314,0,0,0,19.769,2c-.005,0-.011,0-.019,0H9.27A1.27,1.27,0,0,0,8,3.27V14.7h.635ZM20.385,7.9l-6.034,6.034L10.99,10.574,17.023,4.54h2.441a1.592,1.592,0,0,0,.921,1.136Zm1.774-2.727H21.02a.953.953,0,0,1-.953-.953V3.084Z" transform="translate(-6.095 -2)" fill="#fff"/>
      <rect id="Rectangle_2249" data-name="Rectangle 2249" width="1" transform="translate(3 1)" fill="#fff"/>
      <rect id="Rectangle_2250" data-name="Rectangle 2250" width="2" transform="translate(4 1)" fill="#fff"/>
      <rect id="Rectangle_2251" data-name="Rectangle 2251" width="1" transform="translate(6 1)" fill="#fff"/>
      <circle id="Ellipse_56" data-name="Ellipse 56" cx="0.5" cy="0.5" r="0.5" transform="translate(13 3)" fill="#fff"/>
      <rect id="Rectangle_2252" data-name="Rectangle 2252" width="0.635" height="3.144" transform="translate(6.127 8.481) rotate(-45)" fill="#fff"/>
      <rect id="Rectangle_2253" data-name="Rectangle 2253" width="0.635" height="3.144" transform="translate(7.079 7.528) rotate(-45)" fill="#fff"/>
      <path id="Path_30883" data-name="Path 30883" d="M33.172,16.57a.318.318,0,0,0-.249-.249L31.335,16a.318.318,0,0,0-.286.087l-.953.953a.318.318,0,0,0-.087.286l.318,1.588a.318.318,0,0,0,.249.249l1.588.318a.3.3,0,0,0,.061.009.318.318,0,0,0,.224-.093l.953-.953a.318.318,0,0,0,.087-.286Zm-1.051,2.258-1.213-.242-.243-1.213.712-.713,1.213.243.243,1.213Z" transform="translate(-21.111 -11.552)" fill="#fff"/>
      <rect id="Rectangle_2257" data-name="Rectangle 2257" transform="translate(15 10)" fill="#fff"/>
      <rect id="Rectangle_2258" data-name="Rectangle 2258" width="2" transform="translate(13 11)" fill="#fff"/>
      <rect id="Rectangle_2259" data-name="Rectangle 2259" width="2" transform="translate(13 13)" fill="#fff"/>
      <rect id="Rectangle_2260" data-name="Rectangle 2260" width="1" transform="translate(13 10)" fill="#fff"/>
      <rect id="Rectangle_2261" data-name="Rectangle 2261" width="3" transform="translate(3 11)" fill="#fff"/>
      <rect id="Rectangle_2262" data-name="Rectangle 2262" width="4" transform="translate(3 13)" fill="#fff"/>
    </g>
  </g>
</svg>
