<svg xmlns="http://www.w3.org/2000/svg" xmlns:xlink="http://www.w3.org/1999/xlink" width="137.25" height="137.25" viewBox="0 0 137.25 137.25">
  <defs>
    <filter id="Path_30902" x="8.984" y="8.979" width="119.267" height="119.272" filterUnits="userSpaceOnUse">
      <feOffset input="SourceAlpha"/>
      <feGaussianBlur stdDeviation="18" result="blur"/>
      <feFlood flood-color="#9b5a97" flood-opacity="0.161"/>
      <feComposite operator="in" in2="blur"/>
      <feComposite in="SourceGraphic"/>
    </filter>
    <filter id="Path_30903" x="0" y="0" width="137.25" height="137.25" filterUnits="userSpaceOnUse">
      <feOffset input="SourceAlpha"/>
      <feGaussianBlur stdDeviation="18" result="blur-2"/>
      <feFlood flood-color="#9b5a97" flood-opacity="0.161"/>
      <feComposite operator="in" in2="blur-2"/>
      <feComposite in="SourceGraphic"/>
    </filter>
  </defs>
  <g id="Icon_ionic-ios-close-circle-outline" data-name="Icon ionic-ios-close-circle-outline" transform="translate(50.625 50.625)">
    <g transform="matrix(1, 0, 0, 1, -50.63, -50.63)" filter="url(#Path_30902)">
      <path id="Path_30902-2" data-name="Path 30902" d="M23.295,21.705,19.589,18l3.705-3.705a1.124,1.124,0,0,0-1.589-1.589L18,16.411l-3.705-3.705a1.124,1.124,0,0,0-1.589,1.589L16.411,18l-3.705,3.705a1.086,1.086,0,0,0,0,1.589,1.116,1.116,0,0,0,1.589,0L18,19.589l3.705,3.705a1.129,1.129,0,0,0,1.589,0A1.116,1.116,0,0,0,23.295,21.705Z" transform="translate(50.63 50.63)"/>
    </g>
    <g transform="matrix(1, 0, 0, 1, -50.63, -50.63)" filter="url(#Path_30903)">
      <path id="Path_30903-2" data-name="Path 30903" d="M18,5.344A12.651,12.651,0,1,1,9.049,9.049,12.573,12.573,0,0,1,18,5.344m0-1.969A14.625,14.625,0,1,0,32.625,18,14.623,14.623,0,0,0,18,3.375Z" transform="translate(50.63 50.63)"/>
    </g>
  </g>
</svg>
