<svg xmlns="http://www.w3.org/2000/svg" width="20.457" height="23.086" viewBox="0 0 20.457 23.086">
  <g id="community-manager" transform="translate(-29.151)">
    <g id="Group_6600" data-name="Group 6600" transform="translate(31.719 6.987)">
      <path id="Path_1828" data-name="Path 1828" d="M0,0H1.214V2.428H0Z" transform="matrix(0.5, -0.866, 0.866, 0.5, 0, 1.051)" fill="#fff"/>
    </g>
    <g id="Group_6601" data-name="Group 6601" transform="translate(44.331 13.837)">
      <path id="Path_1829" data-name="Path 1829" d="M0,0H1.214V2.428H0Z" transform="matrix(0.5, -0.866, 0.866, 0.5, 0, 1.051)" fill="#fff"/>
    </g>
    <g id="Group_6602" data-name="Group 6602" transform="translate(31.72 13.833)">
      <path id="Path_1830" data-name="Path 1830" d="M0,0H2.428V1.214H0Z" transform="matrix(0.866, -0.5, 0.5, 0.866, 0, 1.214)" fill="#fff"/>
    </g>
    <g id="Group_6603" data-name="Group 6603" transform="translate(44.33 6.984)">
      <path id="Path_1831" data-name="Path 1831" d="M0,0H2.428V1.214H0Z" transform="matrix(0.866, -0.5, 0.5, 0.866, 0, 1.214)" fill="#fff"/>
    </g>
    <g id="Group_6604" data-name="Group 6604" transform="translate(38.773 3.035)">
      <path id="Path_1832" data-name="Path 1832" d="M241,75h1.214v2.468H241Z" transform="translate(-241 -75)" fill="#fff"/>
    </g>
    <g id="Group_6605" data-name="Group 6605" transform="translate(38.773 17.583)">
      <path id="Path_1833" data-name="Path 1833" d="M241,376h1.214v2.468H241Z" transform="translate(-241 -376)" fill="#fff"/>
    </g>
    <g id="Group_6606" data-name="Group 6606" transform="translate(31.72 17.057)">
      <path id="Path_1834" data-name="Path 1834" d="M97.882,367.134l-5.256-3.075.607-1.051,5.256,3.075Z" transform="translate(-92.626 -363.007)" fill="#fff"/>
    </g>
    <g id="Group_6607" data-name="Group 6607" transform="translate(41.205 17.203)">
      <path id="Path_1835" data-name="Path 1835" d="M275.756,370.611l-.581-1.066,5.345-2.949.581,1.066Z" transform="translate(-275.175 -366.596)" fill="#fff"/>
    </g>
    <g id="Group_6608" data-name="Group 6608" transform="translate(47.106 8.509)">
      <path id="Path_1836" data-name="Path 1836" d="M421,181h1.214v6.072H421Z" transform="translate(-421 -181)" fill="#fff"/>
    </g>
    <g id="Group_6609" data-name="Group 6609" transform="translate(41.178 1.902)">
      <path id="Path_1837" data-name="Path 1837" d="M279.742,51.134l-5.256-3.075.607-1.051,5.256,3.075Z" transform="translate(-274.486 -47.007)" fill="#fff"/>
    </g>
    <g id="Group_6610" data-name="Group 6610" transform="translate(31.72 1.902)">
      <path id="Path_1838" data-name="Path 1838" d="M93.233,51.134l-.607-1.051,5.256-3.075.607,1.051Z" transform="translate(-92.626 -47.007)" fill="#fff"/>
    </g>
    <g id="Group_6611" data-name="Group 6611" transform="translate(30.44 8.509)">
      <path id="Path_1839" data-name="Path 1839" d="M61,181h1.214v6.072H61Z" transform="translate(-61 -181)" fill="#fff"/>
    </g>
    <g id="Community_manager_1_" transform="translate(29.151 5.474)">
      <g id="Group_6612" data-name="Group 6612" transform="translate(0 0)">
        <path id="Path_1840" data-name="Path 1840" d="M30.062,109.4a1.821,1.821,0,0,1,1.82-3.154h0a1.821,1.821,0,0,1-1.821,3.154Z" transform="translate(-29.152 -106.005)" fill="#fff"/>
      </g>
      <g id="Group_6613" data-name="Group 6613" transform="translate(16.817 8.496)">
        <path id="Path_1841" data-name="Path 1841" d="M393.784,319.373a1.821,1.821,0,1,1,2.487-.667A1.823,1.823,0,0,1,393.784,319.373Z" transform="translate(-392.874 -315.974)" fill="#fff"/>
      </g>
      <g id="Group_6614" data-name="Group 6614" transform="translate(0 8.496)">
        <path id="Path_1842" data-name="Path 1842" d="M29.394,318.715a1.821,1.821,0,1,1,2.488.667A1.824,1.824,0,0,1,29.394,318.715Z" transform="translate(-29.151 -315.983)" fill="#fff"/>
      </g>
      <g id="Group_6615" data-name="Group 6615" transform="translate(16.817)">
        <path id="Path_1843" data-name="Path 1843" d="M393.117,108.729a1.823,1.823,0,0,1,.666-2.487h0a1.821,1.821,0,1,1-.667,2.487Z" transform="translate(-392.874 -105.998)" fill="#fff"/>
      </g>
    </g>
    <g id="Group_6616" data-name="Group 6616" transform="translate(37.559)">
      <path id="Path_1846" data-name="Path 1846" d="M212.821,3.642a1.821,1.821,0,1,1,1.821-1.821A1.823,1.823,0,0,1,212.821,3.642Z" transform="translate(-211)" fill="#fff"/>
    </g>
    <g id="Group_6617" data-name="Group 6617" transform="translate(37.559 19.444)">
      <path id="Path_1847" data-name="Path 1847" d="M212.821,425.642a1.821,1.821,0,1,1,1.821-1.821A1.823,1.823,0,0,1,212.821,425.642Z" transform="translate(-211 -422)" fill="#fff"/>
    </g>
    <g id="Group_6620" data-name="Group 6620" transform="translate(0 -1)">
      <g id="Group_6619" data-name="Group 6619" transform="translate(37.559 8.34)">
        <path id="Path_1852" data-name="Path 1852" d="M212.821,184.642a1.821,1.821,0,1,1,1.821-1.821A1.823,1.823,0,0,1,212.821,184.642Z" transform="translate(-211 -181.428)" fill="#fff"/>
      </g>
      <path id="Path_1853" data-name="Path 1853" d="M198.428,286A2.435,2.435,0,0,0,196,288.428v1.25a5.451,5.451,0,0,0,4.855,0v-1.25A2.435,2.435,0,0,0,198.428,286Z" transform="translate(-159.048 -273.19)" fill="#fff"/>
    </g>
  </g>
</svg>
