<svg xmlns="http://www.w3.org/2000/svg" width="39" height="39" viewBox="0 0 39 39"><defs><style>.a{fill:#fff;}.b{fill:#ac0c3c;}</style></defs><g transform="translate(-1034 -1912.887)"><circle class="a" cx="19.5" cy="19.5" r="19.5" transform="translate(1034 1912.887)"/><g transform="translate(2080.187 1354.571)"><path class="b" d="M-953.257,699.445l3.569-3.573c.18-.18.353-.367.543-.535a1.158,1.158,0,0,1,1.641-.058,1.111,1.111,0,0,1-.058,1.688c-.773.807-1.575,1.587-2.365,2.377s-1.569,1.594-2.376,2.367a1.108,1.108,0,0,1-1.743.021q-1.211-1.159-2.368-2.373a1.127,1.127,0,0,1-.005-1.635,1.113,1.113,0,0,1,1.578.021C-954.31,698.251-953.837,698.818-953.257,699.445Z" transform="translate(-68.157 -112.821)"/><path class="b" d="M-953.242,570.8l3.64-3.642c.179-.179.35-.37.545-.53a1.1,1.1,0,0,1,1.574.043,1.079,1.079,0,0,1,0,1.574q-2.421,2.474-4.894,4.9a1.1,1.1,0,0,1-1.633,0q-1.242-1.177-2.419-2.421a1.127,1.127,0,0,1-.039-1.579,1.083,1.083,0,0,1,1.626-.025C-954.293,569.633-953.8,570.209-953.242,570.8Z" transform="translate(-68.153)"/><path class="b" d="M-953.244,635.1c1.305-1.308,2.487-2.493,3.67-3.676a5.616,5.616,0,0,1,.549-.527,1.1,1.1,0,0,1,1.523.038,1.046,1.046,0,0,1,.051,1.567q-2.448,2.509-4.956,4.959a1.057,1.057,0,0,1-1.577-.023c-.829-.787-1.635-1.6-2.424-2.425a1.137,1.137,0,0,1,0-1.637,1.126,1.126,0,0,1,1.581.031C-954.3,633.92-953.821,634.483-953.244,635.1Z" transform="translate(-68.167 -56.386)"/><path class="b" d="M-1033.637,710.987c.812,0,1.625-.016,2.437.005a1.081,1.081,0,0,1,1.169,1.045,1.082,1.082,0,0,1-1.09,1.209c-1.649.039-3.3.036-4.949,0a1.131,1.131,0,0,1-1.117-1.131,1.136,1.136,0,0,1,1.189-1.124C-1035.211,710.97-1034.424,710.987-1033.637,710.987Z" transform="translate(0 -126.394)"/><path class="b" d="M-1033.594,584.544c-.787,0-1.575.014-2.361,0a1.14,1.14,0,0,1-1.224-1.089,1.137,1.137,0,0,1,1.154-1.171q2.436-.049,4.874,0a1.088,1.088,0,0,1,1.128,1.176,1.088,1.088,0,0,1-1.209,1.084C-1032.02,584.559-1032.807,584.545-1033.594,584.544Z" transform="translate(-0.005 -13.508)"/><path class="b" d="M-1033.555,648.9c-.786,0-1.573.019-2.359-.006a1.164,1.164,0,0,1-1.262-1.136,1.16,1.16,0,0,1,1.274-1.125q2.321-.032,4.642,0c.809.013,1.243.446,1.24,1.136s-.437,1.1-1.252,1.126C-1032.032,648.923-1032.794,648.9-1033.555,648.9Z" transform="translate(-0.009 -69.951)"/></g></g></svg>