<svg xmlns="http://www.w3.org/2000/svg" width="39" height="39" viewBox="0 0 39 39"><defs><style>.a{fill:#fff;}.b{fill:#ac0c3c;}</style></defs><g transform="translate(-746 -1988.774)"><circle class="a" cx="19.5" cy="19.5" r="19.5" transform="translate(746 1988.774)"/><g transform="translate(2091.585 1476.746)"><path class="b" d="M-1333.13,526.025a2.3,2.3,0,0,1-.253-1.7,2.321,2.321,0,0,1,3.734-1.266c.6.491,1.155,1.03,1.751,1.566a1.927,1.927,0,0,1,1.317-.561,1.884,1.884,0,0,1,1.3.564c.581-.522,1.14-1.06,1.735-1.553a2.32,2.32,0,0,1,3.754,1.262,2.264,2.264,0,0,1-.26,1.691c.426,0,.8,0,1.183,0a1.178,1.178,0,0,1,1.3,1.282c0,.493,0,.986,0,1.479,0,.565-.2.764-.76.764h-16.444c-.654,0-.826-.175-.826-.839,0-.481,0-.963,0-1.444a1.165,1.165,0,0,1,1.23-1.242C-1333.974,526.021-1333.579,526.025-1333.13,526.025Zm4.838,0a1.64,1.64,0,0,0-.208-.342c-.612-.565-1.226-1.128-1.85-1.678a1.116,1.116,0,0,0-1.369-.121,1.145,1.145,0,0,0-.516,1.244,1.113,1.113,0,0,0,1.047.891C-1330.251,526.037-1329.313,526.02-1328.292,526.02Zm3.417,0c1.007,0,1.932.019,2.855-.007a1.145,1.145,0,0,0,1.084-.9,1.134,1.134,0,0,0-.519-1.24,1.136,1.136,0,0,0-1.4.15c-.615.542-1.219,1.1-1.821,1.652A1.578,1.578,0,0,0-1324.875,526.02Z"/><path class="b" d="M-1312.173,649.163h-5.249a1.205,1.205,0,0,1-1.382-1.375q0-4.011,0-8.021v-.376h6.631Z" transform="translate(-15.614 -108.634)"/><path class="b" d="M-1190.551,649.158V639.4h6.612c.008.095.022.185.022.275q0,4.1,0,8.2a1.178,1.178,0,0,1-1.281,1.3c-1.7,0-3.4,0-5.1,0C-1190.368,649.17-1190.438,649.163-1190.551,649.158Z" transform="translate(-134.835 -108.641)"/></g></g></svg>