<svg xmlns="http://www.w3.org/2000/svg" width="39" height="39" viewBox="0 0 39 39"><defs><style>.a{fill:#fff;}.b{fill:#ac0c3c;}</style></defs><g transform="translate(-1034 -1988.887)"><circle class="a" cx="19.5" cy="19.5" r="19.5" transform="translate(1034 1988.887)"/><g transform="translate(2008.13 1489.273)"><path class="b" d="M-954.7,639.112h8.133a1.518,1.518,0,0,1,1.694,1.7q0,3.45,0,6.9a1.513,1.513,0,0,1-1.679,1.675q-8.174,0-16.348,0a1.511,1.511,0,0,1-1.688-1.7q0-3.45,0-6.9a1.5,1.5,0,0,1,1.673-1.673Q-958.806,639.111-954.7,639.112Zm5.07,3.178c.743,0,1.44.009,2.137,0a.642.642,0,0,0,.7-.645.651.651,0,0,0-.72-.625c-.9-.007-1.808-.009-2.711,0a.636.636,0,0,0-.7.69q-.014,2.547,0,5.094a.6.6,0,0,0,.588.669c.958.029,1.917.023,2.875,0a.6.6,0,0,0,.577-.631.6.6,0,0,0-.586-.624,5.067,5.067,0,0,0-.615-.011h-1.558c0-.536,0-1,0-1.465a1.151,1.151,0,0,1,.04-.193h1.312c.137,0,.274,0,.411,0a.613.613,0,0,0,.652-.637.6.6,0,0,0-.633-.612c-.584-.013-1.168,0-1.768,0Zm-4.3,2.356c-.331-1.092-.62-2.06-.917-3.025-.149-.485-.459-.691-.832-.57s-.519.455-.375.937c.482,1.609.972,3.217,1.449,4.828.106.359.268.639.685.639s.568-.3.672-.652c.466-1.571.942-3.14,1.414-4.71a2.178,2.178,0,0,0,.084-.316.607.607,0,0,0-.445-.73.616.616,0,0,0-.758.4c-.052.126-.084.26-.123.39Zm-7.467,1.562v-.5c0-1.3,0-2.6,0-3.9,0-.486-.261-.793-.644-.789s-.634.31-.635.8q0,2.441,0,4.883c0,.544.237.781.772.786.684.006,1.368.005,2.052,0,.5,0,.783-.24.78-.642s-.282-.629-.79-.634C-960.356,646.2-960.847,646.208-961.4,646.208Zm3.039-2c0,.834,0,1.667,0,2.5,0,.489.259.788.647.773s.608-.3.608-.773q0-2.46,0-4.919c0-.487-.258-.786-.648-.773-.373.013-.6.3-.607.772C-958.365,642.6-958.362,643.4-958.362,644.208Z" transform="translate(0 -120.221)"/><path class="b" d="M-798.14,513a6.514,6.514,0,0,1-1.8,4.479c-.349.374-.705.43-1,.172s-.284-.642.072-1.037a5.273,5.273,0,0,0-.008-7.283c-.342-.373-.373-.734-.086-1.008s.664-.232,1,.129A6.549,6.549,0,0,1-798.14,513Z" transform="translate(-150.002 -0.017)"/><path class="b" d="M-925.535,512.965a6.833,6.833,0,0,1,1.858-4.515c.349-.374.7-.423,1-.156s.268.656-.087,1.04a5.273,5.273,0,0,0-.05,7.2c.055.061.115.118.167.181a.647.647,0,0,1-.007.89.625.625,0,0,1-.918-.031,6.067,6.067,0,0,1-1.629-2.762C-925.358,514.21-925.426,513.582-925.535,512.965Z" transform="translate(-35.844 0)"/><path class="b" d="M-816.366,534.361a3.7,3.7,0,0,1-1.054,2.222.642.642,0,0,1-.973.117c-.279-.258-.264-.623.041-.98a2.637,2.637,0,0,0,.012-3.615c-.323-.379-.335-.747-.031-1.005a.668.668,0,0,1,.973.153A4.265,4.265,0,0,1-816.366,534.361Z" transform="translate(-133.998 -20.947)"/><path class="b" d="M-897.79,533.871a3.822,3.822,0,0,1,1-2.578c.322-.363.713-.428,1-.177.305.265.292.623-.039,1.006a2.634,2.634,0,0,0-.011,3.585c.337.4.359.74.064,1.01s-.669.217-1.029-.181A3.847,3.847,0,0,1-897.79,533.871Z" transform="translate(-61.308 -20.963)"/><path class="b" d="M-860.794,552.133a1.308,1.308,0,0,1,1.346-1.307,1.311,1.311,0,0,1,1.31,1.344,1.323,1.323,0,0,1-1.347,1.312A1.322,1.322,0,0,1-860.794,552.133Z" transform="translate(-95.264 -39.191)"/></g></g></svg>