<svg xmlns="http://www.w3.org/2000/svg" width="19.6" height="19.6" viewBox="0 0 19.6 19.6">
  <path id="Path_62075" data-name="Path 62075" d="M2.289-16.5V-5.961H.211V-16.5Zm5.1,2.276A9.1,9.1,0,0,1,10.75-7,9.161,9.161,0,0,1,7.979-.271,9.161,9.161,0,0,1,1.25,2.5,9.161,9.161,0,0,1-5.479-.271,9.161,9.161,0,0,1-8.25-7a9.1,9.1,0,0,1,3.365-7.224L-3.4-12.74A7.078,7.078,0,0,0-6.122-7,7.108,7.108,0,0,0-3.97-1.78,7.108,7.108,0,0,0,1.25.372,7.108,7.108,0,0,0,6.47-1.78,7.108,7.108,0,0,0,8.622-7,6.941,6.941,0,0,0,5.9-12.69Z" transform="translate(8.55 16.8)" fill="#fff" stroke="#fff" stroke-linecap="round" stroke-linejoin="round" stroke-width="0.6"/>
</svg>
