<svg xmlns="http://www.w3.org/2000/svg" width="40.633" height="40.531" viewBox="0 0 40.633 40.531"><defs><style>.a{fill:#fff6d6;stroke:#000;stroke-width:0.8px;}</style></defs><g transform="translate(0.613 0.571)"><path class="a" d="M1181.456-448.833a4.225,4.225,0,0,1,3.874-1.059,4.044,4.044,0,0,1,2.233,6.528c-1.656,1.9-3.517,3.613-5.315,5.381a1.086,1.086,0,0,1-1.655-.052c-1.718-1.7-3.46-3.384-5.115-5.148a4.031,4.031,0,0,1,.01-5.48,4.078,4.078,0,0,1,5.52-.5Z" transform="translate(-1161.661 450.012)"/><path class="a" d="M1263.919-393.824a4.167,4.167,0,0,1,3.877-1.063,4.063,4.063,0,0,1,2.13,6.652c-1.643,1.8-3.423,3.485-5.162,5.2a1.1,1.1,0,0,1-1.708,0c-1.739-1.716-3.5-3.417-5.167-5.2a4.024,4.024,0,0,1-.018-5.361,4.1,4.1,0,0,1,5.314-.771C1263.423-394.207,1263.642-394.028,1263.919-393.824Z" transform="translate(-1231.37 403.51)"/><path class="a" d="M1098.965-393.824a4.186,4.186,0,0,1,3.924-1.059,4.06,4.06,0,0,1,2.119,6.611c-1.653,1.829-3.455,3.525-5.213,5.257a1.1,1.1,0,0,1-1.707-.043c-1.7-1.68-3.414-3.351-5.063-5.081a4.039,4.039,0,0,1-.021-5.535,4.1,4.1,0,0,1,5.462-.538C1098.63-394.092,1098.788-393.961,1098.965-393.824Z" transform="translate(-1091.916 403.513)"/><path class="a" d="M1174.876-242.664c-.243-3.429-.189-6.7,3.093-8.828a6.829,6.829,0,0,0,7.614,0c3.277,2.128,3.336,5.4,3.092,8.83Z" transform="translate(-1161.983 282.17)"/><path class="a" d="M1102.712-238.786c-3.057,0-6.089,0-9.121,0a1.035,1.035,0,0,1-1.154-.92c-.214-2.25-.077-4.434,1.569-6.218.345-.374.749-.694,1.13-1.044a5.936,5.936,0,0,0,7.225.006c.35.314.729.618,1.056.97a.613.613,0,0,1,.106.539c-.836,1.878-.717,3.866-.711,5.841,0,.205,0,.411-.014.616A.991.991,0,0,1,1102.712-238.786Z" transform="translate(-1092.291 278.346)"/><path class="a" d="M1283.909-246.873a6.283,6.283,0,0,1,2.755,4.906c.04.692.041,1.388.016,2.081a1.074,1.074,0,0,1-1.09,1.166c-3.079.029-6.158.013-9.331.013,0-1.017.063-1.989-.017-2.95a11.32,11.32,0,0,0-.515-3.09,1.3,1.3,0,0,1,.563-1.79c.145-.1.292-.2.458-.319A5.9,5.9,0,0,0,1283.909-246.873Z" transform="translate(-1247.197 278.263)"/><path class="a" d="M1196.827-313.995a4.246,4.246,0,0,1,4.2,4.253,4.248,4.248,0,0,1-4.286,4.244,4.249,4.249,0,0,1-4.2-4.254A4.247,4.247,0,0,1,1196.827-313.995Z" transform="translate(-1176.991 335.013)"/><path class="a" d="M1118.134-295.516a3.462,3.462,0,0,1-3.488,3.47,3.51,3.51,0,0,1-3.46-3.445,3.509,3.509,0,0,1,3.473-3.509A3.461,3.461,0,0,1,1118.134-295.516Z" transform="translate(-1108.208 322.334)"/><path class="a" d="M1283.85-295.572a3.463,3.463,0,0,1,3.533-3.425,3.508,3.508,0,0,1,3.415,3.488,3.505,3.505,0,0,1-3.516,3.464A3.464,3.464,0,0,1,1283.85-295.572Z" transform="translate(-1254.191 322.333)"/></g></svg>