<svg xmlns="http://www.w3.org/2000/svg" width="21.574" height="15.168" viewBox="0 0 21.574 15.168"><defs><style>.a{fill:#6e6e6e;}</style></defs><path class="a" d="M-243.465,889.49c-.162.175-.252.278-.348.375q-4.326,4.343-8.654,8.684c-.513.514-.878.514-1.389,0l-8.654-8.684c-.1-.1-.187-.2-.349-.375a5.917,5.917,0,0,1,.849-.133q8.847-.01,17.695,0A5.963,5.963,0,0,1-243.465,889.49Z" transform="translate(263.95 -889.352)"/><path class="a" d="M-248.846,990.853l6.545,6.471a4.918,4.918,0,0,1-.8.139q-8.867.011-17.733,0a4.72,4.72,0,0,1-.724-.11l6.523-6.45c.45.452,1,1.008,1.555,1.561a2,2,0,0,0,3.014,0C-249.91,991.917-249.357,991.362-248.846,990.853Z" transform="translate(262.758 -982.3)"/><path class="a" d="M-275.675,915.678a5.166,5.166,0,0,1-.12-.8q-.012-5.644,0-11.289a4.806,4.806,0,0,1,.131-.8l6.494,6.435Z" transform="translate(275.802 -901.664)"/><path class="a" d="M-98.513,909.324l6.5-6.441a5.1,5.1,0,0,1,.13.822q.014,5.623,0,11.245a4.979,4.979,0,0,1-.13.815Z" transform="translate(113.452 -901.743)"/></svg>