<svg xmlns="http://www.w3.org/2000/svg" width="19.77" height="18.724" viewBox="0 0 19.77 18.724">
  <g id="noun_CMS_1626832" transform="translate(1.5 0.318)">
    <path id="Path_30831" data-name="Path 30831" d="M7.539,2.089,4.449.291a1,1,0,0,0-.906,0l-3.09,1.8A1.012,1.012,0,0,0,0,2.877v3.6a1.012,1.012,0,0,0,.453.788l3.09,1.8a1,1,0,0,0,.906,0l3.09-1.8a1.012,1.012,0,0,0,.453-.788v-3.6A1.012,1.012,0,0,0,7.539,2.089Z" transform="translate(-1)" fill="none" stroke="#fff" stroke-width="1"/>
    <path id="Path_30832" data-name="Path 30832" d="M74.539,2.089l-3.09-1.8a1,1,0,0,0-.906,0l-3.09,1.8A1.012,1.012,0,0,0,67,2.877v3.6a1.012,1.012,0,0,0,.453.788l3.09,1.8a1,1,0,0,0,.906,0l3.09-1.8a1.012,1.012,0,0,0,.453-.788v-3.6A1.012,1.012,0,0,0,74.539,2.089Z" transform="translate(-57.222)" fill="none" stroke="#fff" stroke-width="1"/>
    <path id="Path_30833" data-name="Path 30833" d="M40.668,61.08l-3.152-1.8a1.018,1.018,0,0,0-.91,0l-3.152,1.8a1,1,0,0,0-.455.784v3.6a1,1,0,0,0,.455.784l3.152,1.8a1.018,1.018,0,0,0,.91,0l3.152-1.8a1,1,0,0,0,.455-.784v-3.6A1,1,0,0,0,40.668,61.08Z" transform="translate(-28.676 -50.258)" fill="none" stroke="#fff" stroke-width="1"/>
  </g>
</svg>
