<svg xmlns="http://www.w3.org/2000/svg" width="45.599" height="26.676" viewBox="0 0 45.599 26.676"><defs><style>.a,.b{fill:#fff7e1;}.a{stroke:#000;stroke-width:0.5px;}</style></defs><g transform="translate(-1310.751 -790.633)"><path class="a" d="M665.177-243.584q-9.424,0-18.848,0c-2.568,0-3.7-1.136-3.7-3.706q0-9.468,0-18.936c0-2.322,1.194-3.528,3.524-3.529q19.024-.008,38.049,0c2.326,0,3.523,1.212,3.524,3.533q0,9.556,0,19.113c0,2.325-1.194,3.522-3.526,3.524Q674.689-243.577,665.177-243.584Zm-.088-2.093c4.929,0,9.859-.012,14.788.013a2.149,2.149,0,0,0,1.762-.768c1.117-1.244,2.323-2.409,3.419-3.67a2.491,2.491,0,0,0,.594-1.465q.076-5.1,0-10.21a2.36,2.36,0,0,0-.544-1.4c-1.154-1.328-2.356-2.619-3.611-3.85a2.293,2.293,0,0,0-1.439-.628q-14.875-.054-29.751,0a2.307,2.307,0,0,0-1.433.646c-1.261,1.227-2.467,2.512-3.635,3.828a2.2,2.2,0,0,0-.539,1.311q-.066,5.192,0,10.386a2.212,2.212,0,0,0,.531,1.315c1.1,1.254,2.307,2.422,3.421,3.668a2.321,2.321,0,0,0,1.911.836C655.407-245.692,660.248-245.676,665.089-245.676Z" transform="translate(668.371 1060.642)"/><path class="b" d="M683.7-246.325c4.7,0,9.395-.015,14.091.024a2.041,2.041,0,0,1,1.26.558c.929.894,1.8,1.852,2.644,2.83a1.829,1.829,0,0,1,.425,1.079q.05,4.491,0,8.983a3.083,3.083,0,0,1-.393,1c-.01.025-.04.042-.061.063-1.083,1.113-1.984,2.633-3.3,3.221-1.252.559-2.939.153-4.434.153q-12.066.005-24.132.014a1.8,1.8,0,0,1-1.531-.637c-.979-1.129-2.39-2.054-2.924-3.35-.507-1.232-.126-2.832-.129-4.27,0-1.7-.028-3.406.02-5.108a1.98,1.98,0,0,1,.447-1.154c.865-1,1.772-1.962,2.725-2.874a1.932,1.932,0,0,1,1.2-.508c4.7-.035,9.394-.022,14.091-.022Zm.393,7.212a2.206,2.206,0,0,1-2.047,1.423,17.475,17.475,0,0,0-2.106.041c-.462.076-1.115.328-1.25.672a1.621,1.621,0,0,0,.469,1.332c1.4,1.419,2.874,2.764,4.323,4.133.426.4.836.828,1.3,1.187a.962.962,0,0,0,1.416-.114.93.93,0,0,0-.023-1.348c-.192-.22-.414-.414-.627-.616-1.079-1.026-2.159-2.05-3.326-3.158a4.833,4.833,0,0,0,4.173-3.545c.42,0,.771-.006,1.122,0,.713.015,1.246-.25,1.253-1.024s-.545-1.021-1.242-1.05c-1.334-.056-1.334-.062-1.62-1.455.593,0,1.178.007,1.764,0a.98.98,0,0,0,1.1-1,.962.962,0,0,0-1.048-1.055q-4.046-.04-8.093,0a.961.961,0,0,0-1.055,1.046.974.974,0,0,0,1.091,1.006c.762.013,1.526-.019,2.287.016a2.327,2.327,0,0,1,2.156,1.432c-1.46,0-2.8-.007-4.133,0-.939.006-1.454.392-1.4,1.073.07.833.648,1.014,1.374,1.006C681.3-239.123,682.643-239.112,684.088-239.112Z" transform="translate(649.877 1041.337)"/></g></svg>