<svg xmlns="http://www.w3.org/2000/svg" width="18.477" height="24.751" viewBox="0 0 18.477 24.751"><defs><style>.a{fill:#0073b2;}.b{fill:#fff;}</style></defs><g transform="translate(-449 -1999)"><g transform="translate(1752.174 1476.512)"><path class="a" d="M-1291.73,604.512a9.175,9.175,0,0,1-10.113-4.224,9.118,9.118,0,0,1,1.119-10.969c.928-1.007,1.913-1.963,2.89-2.922a.865.865,0,0,1,.551-.2c1.129-.017,2.257-.009,3.385-.009,1.112,0,2.225-.012,3.337.011a.933.933,0,0,1,.584.233c.933.913,1.863,1.831,2.757,2.782A9.223,9.223,0,0,1-1291.73,604.512Z" transform="translate(0 -57.539)"/><path class="a" d="M-1263.69,522.488h10.856c-.508,1.374-1.026,2.706-1.485,4.058a.821.821,0,0,1-.945.674c-2.062-.042-4.126-.026-6.189-.008a.577.577,0,0,1-.664-.442C-1262.62,525.348-1263.154,523.937-1263.69,522.488Z" transform="translate(-35.665)"/></g><path class="b" d="M-1146.872,308.648h-2.964a.628.628,0,0,1-.13-.01.189.189,0,0,1-.157-.176c0-.268-.005-.536,0-.8a.191.191,0,0,1,.181-.181.926.926,0,0,1,.123-.007h2.828l.02-.021a2.98,2.98,0,0,0-.21-.271,1.638,1.638,0,0,0-.835-.425,4.062,4.062,0,0,0-.912-.087c-.3,0-.607,0-.91,0-.211,0-.292-.082-.292-.293q0-.414,0-.828c0-.2.079-.279.277-.279h5.806c.2,0,.281.079.283.275s0,.421,0,.632c0,.193-.082.273-.276.273h-1.6c.019.033.03.056.044.077a2.341,2.341,0,0,1,.377.856c.016.071.046.094.121.093.353,0,.705,0,1.058,0,.213,0,.287.073.287.285s0,.416,0,.623c0,.191-.079.269-.269.27-.355,0-.711,0-1.066,0-.061,0-.089.011-.1.08a2.618,2.618,0,0,1-.906,1.589,3.312,3.312,0,0,1-1.466.693c-.155.033-.311.059-.477.09.015.019.028.038.042.055.748.86,1.5,1.718,2.242,2.581.323.375.631.763.946,1.144a.221.221,0,0,1,.05.262.239.239,0,0,1-.241.134q-.66,0-1.32,0a.276.276,0,0,1-.228-.105c-.642-.757-1.279-1.518-1.93-2.267-.5-.572-1.009-1.13-1.519-1.689a.462.462,0,0,1-.138-.351c.009-.229,0-.459,0-.689,0-.265.066-.329.328-.332.377,0,.755,0,1.131-.022a2.465,2.465,0,0,0,1.183-.349A1.361,1.361,0,0,0-1146.872,308.648Z" transform="translate(1605.181 1704.1)"/></g></svg>