<svg xmlns="http://www.w3.org/2000/svg" width="17.288" height="21.912" viewBox="0 0 17.288 21.912">
  <g id="noun-policy-4527097" transform="translate(-191.996 -78.198)">
    <path id="Path_30907" data-name="Path 30907" d="M200.64,78.747l-7.606,3.38a.908.908,0,0,0-.538.828v8.461c0,4.5,8.144,8.144,8.144,8.144a25.26,25.26,0,0,0,4.859-2.986L201.731,92.8h0a4.987,4.987,0,1,1,2.561-2.561l3.683,3.683a4.694,4.694,0,0,0,.81-2.511V82.955a.908.908,0,0,0-.147-.493Zm3.195,12.32a5.136,5.136,0,0,1-1.28,1.28l3.638,3.633h0a11.672,11.672,0,0,0,1.249-1.3Z" fill="none" stroke="#fff" stroke-width="1"/>
  </g>
</svg>
