<svg xmlns="http://www.w3.org/2000/svg" width="18.772" height="19.754" viewBox="0 0 18.772 19.754">
  <g id="noun_order_2794308" transform="translate(-4.624 -23.499)">
    <g id="Group_6896" data-name="Group 6896" transform="translate(4.624 23.499)">
      <g id="Group_6889" data-name="Group 6889" transform="translate(0 4.737)">
        <g id="Group_6888" data-name="Group 6888">
          <path id="Path_30856" data-name="Path 30856" d="M57.268,272.1l-.891-.471L54.228,270.5q-1.295-.685-2.591-1.368-1.122-.594-2.246-1.187c-.362-.19-.718-.4-1.085-.574a.088.088,0,0,1-.014-.008l.2.35V259.4c0-.382.014-.766,0-1.148v-.016c-.2.117-.406.232-.608.35l.891.471q1.073.567,2.149,1.136,1.295.685,2.591,1.368,1.122.594,2.246,1.187c.362.19.718.4,1.085.574a.09.09,0,0,1,.014.008l-.2-.35v8.3c0,.382-.01.766,0,1.148v.016a.4.4,0,1,0,.809,0v-8.3c0-.382.01-.766,0-1.148v-.016a.407.407,0,0,0-.2-.35l-.891-.471q-1.073-.567-2.149-1.136-1.295-.685-2.591-1.368-1.122-.594-2.246-1.187c-.362-.192-.722-.388-1.085-.574a.088.088,0,0,1-.014-.008.409.409,0,0,0-.608.35v8.31c0,.382-.01.766,0,1.148v.016a.407.407,0,0,0,.2.35l.891.471,2.149,1.134q1.295.685,2.591,1.368,1.122.594,2.246,1.187c.362.192.722.388,1.085.574a.088.088,0,0,1,.014.008.4.4,0,0,0,.408-.7Z" transform="translate(-47.678 -257.838)" fill="#fff"/>
        </g>
      </g>
      <g id="Group_6891" data-name="Group 6891" transform="translate(8.977 4.745)">
        <g id="Group_6890" data-name="Group 6890">
          <path id="Path_30857" data-name="Path 30857" d="M500.959,267.756l-.891.471-2.149,1.134q-1.295.685-2.591,1.368-1.122.594-2.246,1.187c-.362.19-.734.37-1.086.574l-.014.008c.2.117.406.232.608.35v-8.3c0-.382.016-.766,0-1.148v-.016l-.2.35.891-.471q1.073-.567,2.149-1.136,1.295-.685,2.591-1.368,1.122-.594,2.246-1.187c.362-.19.734-.37,1.086-.574l.014-.008c-.2-.117-.406-.232-.608-.35v8.31c0,.382-.01.766,0,1.148v.016a.4.4,0,0,0,.809,0V259.8c0-.382.01-.766,0-1.148v-.016a.409.409,0,0,0-.608-.35l-.891.471q-1.073.567-2.149,1.136-1.295.685-2.591,1.368-1.122.594-2.246,1.187c-.362.192-.732.372-1.086.574l-.014.008a.4.4,0,0,0-.2.35v8.3c0,.382-.01.766,0,1.148v.016a.409.409,0,0,0,.608.35l.891-.471,2.149-1.134q1.295-.685,2.591-1.368,1.122-.594,2.246-1.187c.362-.19.732-.372,1.086-.574l.014-.008a.408.408,0,0,0,.146-.554A.416.416,0,0,0,500.959,267.756Z" transform="translate(-491.778 -258.238)" fill="#fff"/>
        </g>
      </g>
      <g id="Group_6893" data-name="Group 6893" transform="translate(0.006 0)">
        <g id="Group_6892" data-name="Group 6892">
          <path id="Path_30858" data-name="Path 30858" d="M66.1,28.29l-.891.471q-1.073.567-2.149,1.136-1.295.685-2.591,1.368-1.122.594-2.246,1.187c-.362.19-.732.37-1.085.574l-.014.008h.408l-.891-.471Q55.57,32,54.494,31.427,53.2,30.742,51.9,30.059q-1.122-.594-2.246-1.187c-.362-.19-.718-.4-1.085-.574a.088.088,0,0,1-.014-.008v.7l.891-.471L51.6,27.383q1.295-.685,2.591-1.368,1.122-.594,2.246-1.187c.362-.19.732-.37,1.085-.574l.014-.008h-.408l.891.471,2.149,1.134q1.295.685,2.591,1.368,1.122.594,2.246,1.187c.362.192.722.388,1.086.574a.088.088,0,0,1,.014.008.4.4,0,1,0,.408-.7l-.9-.477q-1.076-.57-2.155-1.138-1.3-.685-2.6-1.373l-2.24-1.183c-.356-.188-.71-.386-1.071-.566a.539.539,0,0,0-.552.063c-.186.1-.372.2-.556.3q-1.013.534-2.023,1.069l-2.6,1.371-2.335,1.233c-.427.224-.851.449-1.278.675a.544.544,0,0,0-.059.032.407.407,0,0,0,0,.7l.9.477q1.076.57,2.155,1.138l2.6,1.375,2.24,1.183c.356.188.71.388,1.071.566a.539.539,0,0,0,.552-.063c.186-.1.372-.2.556-.3q1.013-.534,2.023-1.069l2.6-1.371,2.335-1.235c.427-.224.851-.451,1.278-.675a.544.544,0,0,0,.059-.032.408.408,0,0,0,.146-.554A.414.414,0,0,0,66.1,28.29Z" transform="translate(-47.95 -23.499)" fill="#fff"/>
        </g>
      </g>
      <g id="Group_6895" data-name="Group 6895" transform="translate(4.491 2.368)">
        <g id="Group_6894" data-name="Group 6894">
          <path id="Path_30859" data-name="Path 30859" d="M270.475,146.161l.891-.471q1.073-.567,2.149-1.136,1.295-.685,2.591-1.368,1.122-.594,2.246-1.187c.362-.192.732-.372,1.085-.574l.014-.008a.408.408,0,0,0,.146-.554.416.416,0,0,0-.554-.146l-.891.471q-1.073.567-2.149,1.136-1.295.685-2.591,1.368-1.122.594-2.246,1.187c-.362.192-.732.372-1.085.574l-.014.008a.408.408,0,0,0-.146.554.412.412,0,0,0,.554.146Z" transform="translate(-269.866 -140.666)" fill="#fff"/>
        </g>
      </g>
    </g>
  </g>
</svg>
