<svg xmlns="http://www.w3.org/2000/svg" width="19.808" height="19.807" viewBox="0 0 19.808 19.807">
  <g id="noun_add_product_3658249" data-name="noun_add product_3658249" transform="translate(0 -0.001)">
    <g id="Group_6814" data-name="Group 6814" transform="translate(0 5.366)">
      <path id="Path_30836" data-name="Path 30836" d="M8.558,19.192a.747.747,0,0,1-.2-.028L.571,16.9a.816.816,0,0,1-.544-.986l.569-2.3A.777.777,0,0,1,1.351,13a.746.746,0,0,1,.2.028L9.335,15.3a.813.813,0,0,1,.57.78.842.842,0,0,1-.026.206l-.569,2.3a.8.8,0,0,1-.366.5A.756.756,0,0,1,8.558,19.192Zm-7.17-5.351L.827,16.113l7.7,2.242.55-2.279a.022.022,0,0,0,0,0l-2.128-.612Z" transform="translate(-0.001 -13.002)" fill="#fff"/>
    </g>
    <g id="Group_6815" data-name="Group 6815" transform="translate(0 0.002)">
      <path id="Path_30837" data-name="Path 30837" d="M1.35,6.192A.779.779,0,0,1,.593,5.58l-.567-2.3A.815.815,0,0,1,.57,2.3L8.349.031a.758.758,0,0,1,.6.078.8.8,0,0,1,.368.5l.568,2.3a.838.838,0,0,1,.025.2.812.812,0,0,1-.567.779L1.556,6.163A.766.766,0,0,1,1.35,6.192ZM8.518.841.8,3.089l.587,2.267L9.079,3.113Z" transform="translate(0 -0.002)" fill="#fff"/>
    </g>
    <g id="Group_6816" data-name="Group 6816" transform="translate(9.079 0.001)">
      <path id="Path_30838" data-name="Path 30838" d="M30.556,6.191a.766.766,0,0,1-.2-.028L22.572,3.9a.813.813,0,0,1-.57-.78.827.827,0,0,1,.026-.206L22.6.608a.8.8,0,0,1,.366-.5.754.754,0,0,1,.59-.08L31.336,2.3a.816.816,0,0,1,.545.983l-.569,2.306A.778.778,0,0,1,30.556,6.191ZM23.378.837l-.55,2.275,7.692,2.24.562-2.275s0-.005,0-.005Z" transform="translate(-22.002 -0.001)" fill="#fff"/>
    </g>
    <g id="Group_6817" data-name="Group 6817" transform="translate(1.326 3.105)">
      <path id="Path_30839" data-name="Path 30839" d="M11.767,12.87l-.8-.012L3.213,10.6l.024-.821,7.754-2.261.8.012,7.753,2.253-.025.821a.073.073,0,0,0,.022,0ZM4.761,10.2l6.461,1.882a.765.765,0,0,1,.157.066.742.742,0,0,1,.154-.066L18,10.2,11.536,8.314a.765.765,0,0,1-.157-.066.742.742,0,0,1-.154.066Z" transform="translate(-3.213 -7.522)" fill="#fff"/>
    </g>
    <g id="Group_6818" data-name="Group 6818" transform="translate(0.826 8.027)">
      <path id="Path_30840" data-name="Path 30840" d="M10.669,31.232a.419.419,0,0,1-.154-.03l-7.965-3.21A.806.806,0,0,1,2,27.218V20.45a.412.412,0,0,1,.528-.4L9.7,22.143l.55-2.275h0c0-.013,0-.026,0-.038a.413.413,0,0,1,.824.034h0V30.819a.412.412,0,0,1-.413.413ZM2.827,21v6.218l7.428,2.991V22.771a.791.791,0,0,1-.135.1.75.75,0,0,1-.591.079Z" transform="translate(-2.002 -19.451)" fill="#fff"/>
    </g>
    <g id="Group_6819" data-name="Group 6819" transform="translate(9.079 5.367)">
      <path id="Path_30841" data-name="Path 30841" d="M23.348,19.193a.755.755,0,0,1-.386-.107.8.8,0,0,1-.368-.5l-.568-2.3a.832.832,0,0,1-.025-.2.812.812,0,0,1,.567-.779l7.782-2.266a.785.785,0,0,1,.963.584l.568,2.3a.816.816,0,0,1-.545.982h0l-7.779,2.265A.769.769,0,0,1,23.348,19.193Zm7.17-5.353L22.8,16.09l.586,2.264,7.69-2.24Zm.7,2.663h0Z" transform="translate(-22.001 -13.003)" fill="#fff"/>
    </g>
    <g id="Group_6820" data-name="Group 6820" transform="translate(9.078 8.027)">
      <path id="Path_30842" data-name="Path 30842" d="M22.413,31.231A.412.412,0,0,1,22,30.819V19.863a.413.413,0,0,1,.825,0l.561,2.276,7.164-2.086a.413.413,0,0,1,.528.4v3.574a.413.413,0,0,1-.644.342A3.282,3.282,0,0,0,28.6,23.8a3.3,3.3,0,0,0-2.84,4.98,2.792,2.792,0,0,0,.3.421.413.413,0,0,1-.158.652L22.567,31.2A.408.408,0,0,1,22.413,31.231Zm.413-8.461v7.437l2.278-.919c-.017-.028-.034-.056-.051-.085a4.122,4.122,0,0,1,3.55-6.225,4.04,4.04,0,0,1,1.378.239c.092.032.182.068.272.108V21l-6.7,1.95a.757.757,0,0,1-.6-.078A.8.8,0,0,1,22.825,22.77Z" transform="translate(-22 -19.45)" fill="#fff"/>
    </g>
    <g id="Group_6821" data-name="Group 6821" transform="translate(11.554 11.555)">
      <path id="Path_30843" data-name="Path 30843" d="M32.127,36.253a4.087,4.087,0,0,1-3.175-1.5,3.593,3.593,0,0,1-.376-.532A4.122,4.122,0,0,1,32.127,28a4.116,4.116,0,0,1,2.295.7,4.123,4.123,0,0,1-2.295,7.551Zm0-7.428a3.3,3.3,0,0,0-2.84,4.98,2.792,2.792,0,0,0,.3.421,3.27,3.27,0,0,0,2.543,1.2,3.3,3.3,0,0,0,1.835-6.04,3.293,3.293,0,0,0-1.835-.562Z" transform="translate(-28 -28)" fill="#fff"/>
    </g>
    <g id="Group_6822" data-name="Group 6822" transform="translate(15.268 13.206)">
      <path id="Path_30844" data-name="Path 30844" d="M37.413,36.952A.413.413,0,0,1,37,36.539V32.413a.413.413,0,0,1,.825,0v4.127A.413.413,0,0,1,37.413,36.952Z" transform="translate(-37 -32)" fill="#fff"/>
    </g>
    <g id="Group_6823" data-name="Group 6823" transform="translate(13.205 15.269)">
      <path id="Path_30845" data-name="Path 30845" d="M36.539,37.825H32.413a.413.413,0,0,1,0-.825h4.127a.413.413,0,0,1,0,.825Z" transform="translate(-32 -37)" fill="#fff"/>
    </g>
  </g>
</svg>
