<svg xmlns="http://www.w3.org/2000/svg" width="76" height="76" viewBox="0 0 76 76">
  <g id="Icon_ionic-ios-checkmark-circle-outline" data-name="Icon ionic-ios-checkmark-circle-outline" transform="translate(-3.375 -3.375)">
    <path id="Path_3" data-name="Path 3" d="M49.567,15.732l-3.215-3.307a.691.691,0,0,0-.512-.219h0a.663.663,0,0,0-.512.219L23.04,34.878l-8.112-8.112a.706.706,0,0,0-1.023,0l-3.252,3.252a.728.728,0,0,0,0,1.041L20.884,41.291a3.235,3.235,0,0,0,2.138,1.041,3.39,3.39,0,0,0,2.119-1h.018L49.585,16.774A.781.781,0,0,0,49.567,15.732Z" transform="translate(11.283 14.115)" fill="#e30986"/>
    <path id="Path_4" data-name="Path 4" d="M41.375,8.49A32.89,32.89,0,0,1,64.632,64.632,32.89,32.89,0,0,1,18.118,18.118,32.667,32.667,0,0,1,41.375,8.49m0-5.115a38,38,0,1,0,38,38,37.994,37.994,0,0,0-38-38Z" transform="translate(0 0)" fill="#e30986"/>
  </g>
</svg>
