<svg xmlns="http://www.w3.org/2000/svg" width="16.573" height="22.399" viewBox="0 0 16.573 22.399"><defs><style>.a{fill:#fff;}</style></defs><path class="a" d="M416.443-39.852c.192,0,.367,0,.543,0a19.126,19.126,0,0,0,3.91-.291,3.253,3.253,0,0,0,.685-.253,6.323,6.323,0,0,0,1.934-1.215,3.355,3.355,0,0,0,1.048-2.023c0-.022,0-.044.007-.084h-8.932l.447-.663c.3-.447.6-.893.9-1.343a.241.241,0,0,1,.23-.123q3.412.005,6.823,0h.176a2.121,2.121,0,0,0-.711-.9,4.881,4.881,0,0,0-1.731-.791A14.224,14.224,0,0,0,418.536-48c-.95-.035-1.9-.033-2.853-.047h-.1a1.017,1.017,0,0,1,.054-.1q.743-1.048,1.485-2.1a.2.2,0,0,1,.192-.094q7.357,0,14.714,0h.129c-.03.054-.048.093-.071.129-.457.718-.916,1.435-1.37,2.156a.223.223,0,0,1-.219.117c-1.169,0-2.337,0-3.506,0h-.161c.13.23.265.434.366.653.194.419.372.844.547,1.271.034.082.066.11.152.11q1.162,0,2.324.007.884,0,1.767.012c.026,0,.051,0,.1.007-.138.209-.266.4-.4.6-.374.562-.75,1.123-1.12,1.687a.176.176,0,0,1-.172.093c-.778,0-1.556,0-2.334,0-.072,0-.123,0-.146.093a5.949,5.949,0,0,1-3.444,4.123,11.839,11.839,0,0,1-3.4.964l-.7.1,8.873,10.269c-.075.006-.117.012-.158.012-1.26,0-2.52,0-3.78,0a.276.276,0,0,1-.182-.083q-2.883-3.212-5.759-6.43-1.414-1.58-2.831-3.158a.353.353,0,0,1-.1-.263c.006-.589,0-1.178,0-1.767Z" transform="translate(-415.584 50.335)"/></svg>