<svg xmlns="http://www.w3.org/2000/svg" width="19.001" height="18.987" viewBox="0 0 19.001 18.987">
  <g id="noun_spring_season_2504944" data-name="noun_spring season_2504944" transform="translate(-8.594 -8.606)">
    <path id="Path_30866" data-name="Path 30866" d="M40.976,11.345a.189.189,0,0,1-.1-.028,8.982,8.982,0,0,0-1.361-.646.2.2,0,1,1,.141-.373,9.018,9.018,0,0,1,1.421.671.2.2,0,0,1-.1.373Z" transform="translate(-18.248 -0.841)" fill="#fff" stroke="#fff" stroke-width="0.3"/>
    <path id="Path_30867" data-name="Path 30867" d="M46.86,15.2a.2.2,0,0,1-.149-.064,8.641,8.641,0,0,0-1.064-1,.2.2,0,0,1-.032-.281.2.2,0,0,1,.281-.032,9.126,9.126,0,0,1,1.112,1.044.2.2,0,0,1,0,.281A.2.2,0,0,1,46.86,15.2Z" transform="translate(-21.965 -2.938)" fill="#fff" stroke="#fff" stroke-width="0.3"/>
    <path id="Path_30868" data-name="Path 30868" d="M52.315,22.906a.209.209,0,0,1-.193-.149,8.833,8.833,0,0,0-.759-1.851.2.2,0,0,1,.353-.193,9.439,9.439,0,0,1,.8,1.935.2.2,0,0,1-.141.249Z" transform="translate(-25.416 -7.026)" fill="#fff" stroke="#fff" stroke-width="0.3"/>
    <path id="Path_30869" data-name="Path 30869" d="M18.158,27.444A9.287,9.287,0,1,1,21.407,9.456a.2.2,0,1,1-.141.373,8.885,8.885,0,1,0,5.778,8.327,9.126,9.126,0,0,0-.137-1.554.2.2,0,0,1,.165-.233.193.193,0,0,1,.229.165,9.094,9.094,0,0,1,.145,1.606,9.3,9.3,0,0,1-9.287,9.3Z" fill="#fff" stroke="#fff" stroke-width="0.3"/>
    <path id="Path_30870" data-name="Path 30870" d="M29.331,31.121a1.791,1.791,0,1,1,1.791-1.791A1.791,1.791,0,0,1,29.331,31.121Zm0-3.18a1.389,1.389,0,1,0,1.389,1.389A1.389,1.389,0,0,0,29.331,27.942Z" transform="translate(-11.172 -11.174)" fill="#fff" stroke="#fff" stroke-width="0.3"/>
    <path id="Path_30871" data-name="Path 30871" d="M26.1,19.377a.2.2,0,0,1-.2-.2v-1.47a2.052,2.052,0,0,1,1.967-1.959.2.2,0,0,1,.056.4,1.637,1.637,0,0,0-1.606,1.558v1.47a.2.2,0,0,1-.217.2Z" transform="translate(-10.191 -4.116)" fill="#fff" stroke="#fff" stroke-width="0.3"/>
    <path id="Path_30872" data-name="Path 30872" d="M34.652,19.377a.2.2,0,0,1-.2-.2v-1.47a1.666,1.666,0,0,0-1.606-1.558.2.2,0,0,1,.056-.4,2.046,2.046,0,0,1,1.967,1.959v1.47a.2.2,0,0,1-.217.2Z" transform="translate(-14.245 -4.116)" fill="#fff" stroke="#fff" stroke-width="0.3"/>
    <path id="Path_30873" data-name="Path 30873" d="M18.882,30.822h-.06l-1.4-.454a2.048,2.048,0,0,1-1.257-2.473.2.2,0,0,1,.4.064,1.644,1.644,0,0,0,.984,2.008l1.4.454a.2.2,0,0,1,.132.253A.2.2,0,0,1,18.882,30.822Z" transform="translate(-4.337 -11.284)" fill="#fff" stroke="#fff" stroke-width="0.3"/>
    <path id="Path_30874" data-name="Path 30874" d="M17.07,24.131a.237.237,0,0,1-.088,0,.2.2,0,0,1-.092-.269,2.053,2.053,0,0,1,2.469-1.269l1.4.454a.21.21,0,0,1-.12.4l-1.4-.454a1.668,1.668,0,0,0-1.987,1.06.2.2,0,0,1-.181.076Z" transform="translate(-4.786 -8.158)" fill="#fff" stroke="#fff" stroke-width="0.3"/>
    <path id="Path_30875" data-name="Path 30875" d="M24.466,43.274a2.65,2.65,0,0,1-1.229-.329.2.2,0,1,1,.185-.353,1.678,1.678,0,0,0,2.232-.309l.863-1.2a.2.2,0,1,1,.321.233l-.863,1.2A1.819,1.819,0,0,1,24.466,43.274Z" transform="translate(-8.52 -19.227)" fill="#fff" stroke="#fff" stroke-width="0.3"/>
    <path id="Path_30876" data-name="Path 30876" d="M20.442,38.5a.209.209,0,0,1-.141-.056,2.045,2.045,0,0,1-.438-2.738l.867-1.2a.2.2,0,1,1,.321.233l-.867,1.2a1.668,1.668,0,0,0,.4,2.216.2.2,0,0,1-.141.345Z" transform="translate(-6.367 -15.289)" fill="#fff" stroke="#fff" stroke-width="0.3"/>
    <path id="Path_30877" data-name="Path 30877" d="M41.21,38.5a.2.2,0,0,1-.141-.345,1.679,1.679,0,0,0,.4-2.216l-.867-1.2a.2.2,0,1,1,.321-.233l.867,1.2a2.046,2.046,0,0,1-.438,2.738A.209.209,0,0,1,41.21,38.5Z" transform="translate(-18.968 -15.289)" fill="#fff" stroke="#fff" stroke-width="0.3"/>
    <path id="Path_30878" data-name="Path 30878" d="M33.913,43.276a1.815,1.815,0,0,1-1.506-.751l-.863-1.2a.2.2,0,1,1,.321-.233l.863,1.2a1.662,1.662,0,0,0,2.236.305.2.2,0,1,1,.185.353A2.666,2.666,0,0,1,33.913,43.276Z" transform="translate(-13.546 -19.233)" fill="#fff" stroke="#fff" stroke-width="0.3"/>
    <path id="Path_30879" data-name="Path 30879" d="M40.883,24.079a.2.2,0,0,1-.181-.112,1.689,1.689,0,0,0-2.008-1.06l-1.4.454a.21.21,0,1,1-.12-.4l1.4-.454a2.058,2.058,0,0,1,2.469,1.269.2.2,0,0,1-.092.269A.217.217,0,0,1,40.883,24.079Z" transform="translate(-16.851 -8.107)" fill="#fff" stroke="#fff" stroke-width="0.3"/>
    <path id="Path_30880" data-name="Path 30880" d="M40.75,30.834a.2.2,0,0,1-.193-.141.2.2,0,0,1,.132-.253l1.4-.454a1.662,1.662,0,0,0,.984-2.008.2.2,0,1,1,.4-.064,2.048,2.048,0,0,1-1.253,2.477l-1.405.454Z" transform="translate(-18.958 -11.296)" fill="#fff" stroke="#fff" stroke-width="0.3"/>
  </g>
</svg>
