<svg xmlns="http://www.w3.org/2000/svg" width="20.143" height="20.144" viewBox="0 0 20.143 20.144">
  <path id="Path_30835" data-name="Path 30835" d="M56.87,60.913V56.871h4.042v4.042Zm-.58-1.731H54.272v2.311h-5.2v-5.2h5.2V58.6H56.29V56.29H58.6V54.272H56.29v-5.2h5.2v5.2H59.182V56.29h2.311V58.6H63.51V56.29h5.2v5.2h-5.2V59.182H61.493v2.312H59.182v2.018h2.311v5.2h-5.2v-5.2H58.6V61.493H56.29Zm-2.6,1.731V56.871H49.65v4.042Zm10.4,0V56.871h4.042v4.042Zm-7.22-7.219h4.042V49.651H56.87Zm0,10.4h4.042v4.042H56.87Z" transform="translate(-48.82 -48.82)" fill="#fff" stroke="#fff" stroke-width="0.5"/>
</svg>
