<svg xmlns="http://www.w3.org/2000/svg" width="74.209" height="25.517" viewBox="0 0 74.209 25.517"><defs><style>.a{fill:#fff6d6;stroke:#231f20;stroke-miterlimit:10;}</style></defs><g transform="translate(1.074 1.13)"><path class="a" d="M36.822,58.582l2.836,5.747L46,65.25l-4.589,4.473,1.083,6.317-5.673-2.982-5.673,2.982,1.083-6.317L27.644,65.25l6.342-.922Z" transform="translate(-27.644 -52.567)"/><path class="a" d="M39.984,58.582,43.8,66.309l8.527,1.239-6.17,6.015,1.457,8.493-7.627-4.01-7.627,4.01,1.457-8.493-6.17-6.015,8.527-1.239Z" transform="translate(-4.144 -58.582)"/><path class="a" d="M36.822,58.582l2.836,5.747L46,65.25l-4.589,4.473,1.083,6.317-5.673-2.982-5.673,2.982,1.083-6.317L27.644,65.25l6.342-.922Z" transform="translate(26.059 -52.567)"/></g></svg>