<svg xmlns="http://www.w3.org/2000/svg" width="18.697" height="18.697" viewBox="0 0 18.697 18.697">
  <g id="noun_Store_4292092" transform="translate(-1.75 -1.75)">
    <g id="Group_6887" data-name="Group 6887" transform="translate(2 2)">
      <path id="Path_30855" data-name="Path 30855" d="M4.278,3.139,2.215,7.268A2.026,2.026,0,0,0,2,8.174v.585A2.349,2.349,0,0,0,4.339,11.1a2.32,2.32,0,0,0,1.689-.744,2.292,2.292,0,0,0,3.38,0,2.291,2.291,0,0,0,3.379,0,2.292,2.292,0,0,0,3.38,0,2.334,2.334,0,0,0,1.429.716V17.6a1.283,1.283,0,0,1-1.3,1.3H13.7V14.324a1.288,1.288,0,0,0-1.276-1.276H9.775A1.288,1.288,0,0,0,8.5,14.324V18.9H5.9a1.283,1.283,0,0,1-1.3-1.3V13.046a.65.65,0,1,0-1.3,0V17.6a2.608,2.608,0,0,0,2.6,2.6H16.3a2.608,2.608,0,0,0,2.6-2.6V10.842a2.341,2.341,0,0,0,1.3-2.083V8.174a2.026,2.026,0,0,0-.215-.906L17.919,3.139A2.064,2.064,0,0,0,16.076,2H6.129A2.216,2.216,0,0,0,4.278,3.139Zm11.8.161a.757.757,0,0,1,.68.42L18.82,7.849a.726.726,0,0,1,.077.325v.585a1.04,1.04,0,1,1-2.079,0,.65.65,0,0,0-1.3,0,1.04,1.04,0,0,1-2.08,0,.65.65,0,0,0-1.3,0A1.018,1.018,0,0,1,11.1,9.8a.985.985,0,0,1-1.04-1.04.65.65,0,0,0-1.3,0A1,1,0,0,1,7.72,9.8a1.024,1.024,0,0,1-1.041-1.04.65.65,0,0,0-1.3,0,1.04,1.04,0,0,1-2.079,0V8.174a.725.725,0,0,1,.077-.325L5.441,3.72A.759.759,0,0,1,6.1,3.3h9.971ZM9.8,14.348h2.6V18.9H9.8Z" transform="translate(-2 -2)" fill="#fff" stroke="#000" stroke-width="0.5"/>
    </g>
  </g>
</svg>
