<svg xmlns="http://www.w3.org/2000/svg" width="18.774" height="18.774" viewBox="0 0 18.774 18.774">
  <g id="noun_theme_2123233" transform="translate(-1.85 -1.85)">
    <g id="Group_6873" data-name="Group 6873" transform="translate(2 2)">
      <path id="Path_30853" data-name="Path 30853" d="M16.845,2H5.629A3.635,3.635,0,0,0,2,5.629V16.845a3.635,3.635,0,0,0,3.629,3.629H16.845a3.635,3.635,0,0,0,3.629-3.629V5.629A3.635,3.635,0,0,0,16.845,2Zm2.969,3.629V15.856H9.258V2.66h7.588a2.976,2.976,0,0,1,2.969,2.969Zm-6.6,10.887v2.91l-3.4-2.91ZM5.629,2.66H8.6v3.3H2.66v-.33A2.976,2.976,0,0,1,5.629,2.66ZM2.66,16.845V6.619H8.6V16.2a.238.238,0,0,1,0,.066v.059a.284.284,0,0,1,0,.046l.046.059h0L12.6,19.808H5.629A2.976,2.976,0,0,1,2.66,16.845Zm14.185,2.969H13.876v-3.3h5.938v.33a2.976,2.976,0,0,1-2.969,2.969Z" transform="translate(-2 -2)" fill="#fff" stroke="#fff" stroke-width="0.3"/>
    </g>
  </g>
</svg>
