<svg id="Total_Mentors" data-name="Total Mentors" xmlns="http://www.w3.org/2000/svg" width="50" height="50" viewBox="0 0 50 50">
  <circle id="Ellipse_26" data-name="Ellipse 26" cx="25" cy="25" r="25" fill="#ffeff6"/>
  <path id="Icon_awesome-users" data-name="Icon awesome-users" d="M4.975,12.2A3.317,3.317,0,1,0,1.658,8.883,3.32,3.32,0,0,0,4.975,12.2Zm23.217,0a3.317,3.317,0,1,0-3.317-3.317A3.32,3.32,0,0,0,28.192,12.2Zm1.658,1.658H26.533a3.307,3.307,0,0,0-2.337.964,7.58,7.58,0,0,1,3.892,5.669h3.42a1.657,1.657,0,0,0,1.658-1.658V17.175A3.32,3.32,0,0,0,29.85,13.858Zm-13.267,0a5.8,5.8,0,1,0-5.8-5.8A5.8,5.8,0,0,0,16.583,13.858Zm3.98,1.658h-.43a8.014,8.014,0,0,1-7.1,0H12.6a5.972,5.972,0,0,0-5.97,5.97v1.493a2.488,2.488,0,0,0,2.488,2.488H24.046a2.488,2.488,0,0,0,2.488-2.488V21.487A5.972,5.972,0,0,0,20.563,15.517ZM8.971,14.822a3.307,3.307,0,0,0-2.337-.964H3.317A3.32,3.32,0,0,0,0,17.175v1.658a1.657,1.657,0,0,0,1.658,1.658H5.073A7.6,7.6,0,0,1,8.971,14.822Z" transform="translate(8 10.75)" fill="#e30986"/>
</svg>
