<svg xmlns="http://www.w3.org/2000/svg" width="50" height="50" viewBox="0 0 50 50">
  <g id="Total_Active_Courses" data-name="Total Active Courses" transform="translate(0.15)">
    <circle id="Ellipse_26" data-name="Ellipse 26" cx="25" cy="25" r="25" transform="translate(-0.15)" fill="#ffeff6"/>
    <g id="noun-cancel-order-813074" transform="translate(-69.531 -63.724)">
      <path id="Path_30896" data-name="Path 30896" d="M351.834,260.451l1.071.958-9.377,5.4-3.293-2.944,6.443-3.709a6.757,6.757,0,0,0,5.156.3Z" transform="translate(-246.666 -172.758)" fill="#e30986"/>
      <path id="Path_30897" data-name="Path 30897" d="M132.91,101.877l3.293,2.944,9.378-5.4-3.293-2.944Z" transform="translate(-52.462 -19.441)" fill="#e30986"/>
      <path id="Path_30898" data-name="Path 30898" d="M342.881,100.7l-2.625-1.512,3.36-2.96.556.319a6.75,6.75,0,0,0-1.29,4.153Z" transform="translate(-246.686 -19.208)" fill="#e30986"/>
      <path id="Path_30899" data-name="Path 30899" d="M135.2,233.45l9.378,5.4-3.359,2.961-9.378-5.4Z" transform="translate(-51.462 -147.744)" fill="#e30986"/>
      <path id="Path_30900" data-name="Path 30900" d="M194.055,315.226v9.867l.225.129.227-.13V315.23l3.258,2.914,6.135-3.533v5.6l-9.621,5.539-9.621-5.539v-5.54l6.067,3.493Z" transform="translate(-100.937 -223.768)" fill="#e30986"/>
      <path id="Path_30901" data-name="Path 30901" d="M411.287,81.313a5.589,5.589,0,1,1-5.589-5.589A5.59,5.59,0,0,1,411.287,81.313Zm-.466,0a5.124,5.124,0,1,0-5.123,5.124A5.123,5.123,0,0,0,410.821,81.313ZM402.984,83.4l.63.63,2.082-2.082,2.082,2.082.63-.63-2.082-2.082,2.082-2.082-.63-.63L405.7,80.683,403.615,78.6l-.63.63,2.082,2.082Z" transform="translate(-302.75)" fill="#e30986"/>
    </g>
  </g>
</svg>
