<svg xmlns="http://www.w3.org/2000/svg" width="18.325" height="18.328" viewBox="0 0 18.325 18.328">
  <g id="noun_offer_3233982" transform="translate(-3.813 -67.675)">
    <g id="Group_6260" data-name="Group 6260" transform="translate(3.475 67.837)">
      <g id="Group_6253" data-name="Group 6253">
        <g id="Group_6252" data-name="Group 6252">
          <path id="Path_30612" data-name="Path 30612" d="M83.952,78.976a1.846,1.846,0,0,1,.346.823.583.583,0,0,1,.01.063c0-.006,0-.038,0,0s.008.073.01.109c0,.085,0,.168,0,.253a1.7,1.7,0,0,1-.079.426,1.876,1.876,0,0,1-.434.74,2.028,2.028,0,0,1-.152.144c-.014.012-.03.026-.047.038s-.045.034-.008.008c-.032.024-.065.047-.1.069a1.932,1.932,0,0,1-.176.105c-.034.018-.069.036-.105.053l-.041.018c-.028.012.028-.01-.022.008a2.3,2.3,0,0,1-.48.126c.053-.008-.045,0-.065.006l-.118.006a2.329,2.329,0,0,1-.265-.01.3.3,0,0,0-.3.3,2.681,2.681,0,0,1,0,.442c0,.01-.008.061,0,.006l-.006.043-.018.1a2.04,2.04,0,0,1-.061.225c-.01.032-.022.065-.034.1,0,.006-.024.063-.012.032s-.008.016-.008.018c-.032.071-.069.142-.107.209s-.073.115-.113.172-.014.02-.006.01c-.012.016-.024.03-.038.047s-.053.061-.079.089c-.049.051-.1.1-.152.148-.03.026-.061.053-.093.079.028-.022-.047.032-.063.043a1.86,1.86,0,0,1-.192.116l-.12.061a.6.6,0,0,1-.081.032c-.071.026-.144.049-.219.069-.043.01-.083.02-.126.028a.45.45,0,0,1-.047.008c-.014,0-.073.01-.03.006a2.337,2.337,0,0,1-.476,0c-.006,0-.059-.008-.012,0-.02,0-.043-.006-.063-.01-.047-.008-.093-.018-.138-.028a1.86,1.86,0,0,1-.255-.079l-.045-.018c-.026-.01.014.008-.028-.014s-.075-.036-.113-.057a2.029,2.029,0,0,1-.243-.152.3.3,0,0,0-.415.109,2.394,2.394,0,0,1-.229.393c-.034.049-.012.016,0,.006-.012.014-.024.028-.036.045s-.049.057-.075.085a2.225,2.225,0,0,1-.172.166c-.024.022-.051.043-.077.063.039-.03-.036.026-.053.036-.067.045-.136.087-.207.126-.034.018-.067.034-.1.051-.006,0-.061.028-.028.014s-.022.01-.03.012a2.406,2.406,0,0,1-.233.077c-.071.018-.142.032-.215.045-.051.008.043,0-.008,0L77,85.226c-.045,0-.089.006-.136.008a2.123,2.123,0,0,1-.227-.006l-.059-.006c-.008,0-.069-.008-.032,0l-.032-.006c-.024,0-.049-.008-.073-.014-.077-.016-.152-.036-.225-.059l-.1-.032-.053-.02c-.03-.012.03.014-.02-.01-.069-.032-.136-.067-.2-.105l-.1-.061c-.016-.01-.03-.02-.047-.032s-.065-.047-.038-.026-.012-.01-.014-.01c-.022-.018-.045-.036-.065-.055s-.063-.057-.093-.087a2.13,2.13,0,0,1-.17-.188c-.03-.038.024.034,0-.006-.014-.018-.028-.039-.041-.057-.024-.034-.047-.071-.069-.107a2.242,2.242,0,0,1-.126-.239.306.306,0,0,0-.415-.109,1.846,1.846,0,0,1-.823.346.582.582,0,0,1-.063.01c.006,0,.038,0,0,0s-.073.008-.109.01c-.085,0-.168,0-.253,0A1.7,1.7,0,0,1,73,84.279a1.876,1.876,0,0,1-.74-.434,2.028,2.028,0,0,1-.144-.152c-.012-.014-.026-.03-.039-.047s-.034-.045-.008-.008c-.024-.032-.047-.065-.069-.1a1.929,1.929,0,0,1-.105-.176c-.018-.034-.036-.069-.053-.105l-.018-.041c-.012-.028.01.028-.008-.022a2.3,2.3,0,0,1-.126-.48c.008.053,0-.045-.006-.065l-.006-.118a2.323,2.323,0,0,1,.01-.265.3.3,0,0,0-.3-.3,2.68,2.68,0,0,1-.442,0c-.01,0-.061-.008-.006,0l-.043-.006-.1-.018a2.038,2.038,0,0,1-.225-.061c-.032-.01-.065-.022-.1-.034l-.032-.012-.018-.008c-.071-.032-.142-.069-.209-.107s-.115-.073-.172-.113-.02-.014-.01-.006c-.016-.012-.03-.024-.047-.038s-.061-.053-.089-.079c-.051-.049-.1-.1-.148-.152-.026-.03-.053-.061-.079-.093.022.028-.032-.047-.043-.063a1.863,1.863,0,0,1-.116-.192c-.02-.039-.041-.079-.061-.12a.6.6,0,0,1-.032-.081c-.026-.071-.049-.144-.069-.219-.01-.043-.02-.083-.028-.126a.456.456,0,0,1-.008-.047c0-.014-.01-.073-.006-.03a2.337,2.337,0,0,1,0-.476c0-.006.008-.059,0-.012,0-.02.006-.043.01-.063.008-.047.018-.093.028-.138a1.86,1.86,0,0,1,.079-.255l.018-.045c.01-.026-.008.014.014-.028s.036-.075.057-.113a2.028,2.028,0,0,1,.152-.243.3.3,0,0,0-.109-.415,2.394,2.394,0,0,1-.393-.229c-.049-.034-.016-.012-.006,0-.014-.012-.028-.024-.045-.036s-.057-.049-.085-.075a2.225,2.225,0,0,1-.166-.172c-.022-.024-.043-.051-.063-.077.03.039-.026-.036-.036-.053-.045-.067-.087-.136-.126-.207-.018-.034-.034-.067-.051-.1,0-.006-.028-.061-.014-.028s-.01-.022-.012-.03a2.412,2.412,0,0,1-.077-.233c-.018-.071-.032-.142-.045-.215-.008-.051,0,.043,0-.008,0-.02,0-.041-.006-.059,0-.045-.006-.089-.008-.136a2.123,2.123,0,0,1,.006-.227c0-.02,0-.041.006-.059s.008-.069,0-.032,0-.024.006-.032c0-.024.008-.049.014-.073.016-.077.036-.152.059-.225.01-.032.022-.063.032-.1s.014-.036.02-.053-.014.03.01-.02c.032-.069.067-.136.105-.2.02-.032.041-.065.061-.1s.02-.03.032-.047.047-.065.026-.038.01-.012.01-.014c.018-.022.036-.045.055-.065s.057-.063.087-.093a2.135,2.135,0,0,1,.188-.17c.038-.03-.034.024.006,0,.018-.014.039-.028.057-.041.034-.024.071-.047.107-.069a2.242,2.242,0,0,1,.239-.126.306.306,0,0,0,.109-.415,1.846,1.846,0,0,1-.346-.823.584.584,0,0,1-.01-.063c0,.006,0,.039,0,0s-.008-.073-.01-.109c0-.085,0-.168,0-.253a1.7,1.7,0,0,1,.079-.426,1.877,1.877,0,0,1,.434-.74,2.03,2.03,0,0,1,.152-.144c.014-.012.03-.026.047-.038s.045-.034.008-.008c.032-.024.065-.047.1-.069a1.925,1.925,0,0,1,.176-.105c.034-.018.069-.036.105-.053l.041-.018c.028-.012-.028.01.022-.008a2.3,2.3,0,0,1,.48-.126c-.053.008.045,0,.065-.006l.118-.006a2.327,2.327,0,0,1,.265.01.3.3,0,0,0,.3-.3,2.681,2.681,0,0,1,0-.442c0-.01.008-.061,0-.006l.006-.043.018-.1a2.037,2.037,0,0,1,.061-.225c.01-.032.022-.065.034-.1,0-.006.024-.063.012-.032s.008-.016.008-.018c.032-.071.069-.142.107-.209s.073-.115.113-.172.014-.02.006-.01c.012-.016.024-.03.038-.047s.053-.061.079-.089c.049-.051.1-.1.152-.148.03-.026.061-.053.093-.079-.028.022.047-.032.063-.043a1.864,1.864,0,0,1,.192-.115l.12-.061a.6.6,0,0,1,.081-.032c.071-.026.144-.049.219-.069.043-.01.083-.02.126-.028a.455.455,0,0,1,.047-.008c.014,0,.073-.01.03-.006a2.337,2.337,0,0,1,.476,0c.006,0,.059.008.012,0,.02,0,.043.006.063.01.047.008.093.018.138.028a1.86,1.86,0,0,1,.255.079l.045.018c.026.01-.014-.008.028.014s.075.036.113.057a2.028,2.028,0,0,1,.243.152.3.3,0,0,0,.415-.109,2.4,2.4,0,0,1,.229-.393c.034-.049.012-.016,0-.006.012-.014.024-.028.036-.045s.049-.057.075-.085a2.222,2.222,0,0,1,.172-.166c.024-.022.051-.043.077-.063-.039.03.036-.026.053-.036.067-.045.136-.087.207-.126.034-.018.067-.034.1-.051.006,0,.061-.028.028-.014s.022-.01.03-.012a2.412,2.412,0,0,1,.233-.077c.071-.018.142-.032.215-.045.051-.008-.043,0,.008,0l.059-.006c.045,0,.089-.006.136-.008a2.12,2.12,0,0,1,.227.006l.059.006c.008,0,.069.008.032,0l.032.006c.024,0,.049.008.073.014.077.016.152.036.225.059l.1.032.053.02c.03.012-.03-.014.02.01.069.032.136.067.2.105l.1.061c.016.01.03.02.047.032s.065.047.039.026.012.01.014.01c.022.018.045.036.065.055s.063.057.093.087a2.133,2.133,0,0,1,.17.188c.03.039-.024-.034,0,.006.014.018.028.039.041.057.024.034.047.071.069.107a2.241,2.241,0,0,1,.126.239.306.306,0,0,0,.415.109,1.846,1.846,0,0,1,.823-.346.584.584,0,0,1,.063-.01c-.006,0-.038,0,0,0s.073-.008.109-.01c.085,0,.168,0,.253,0a1.7,1.7,0,0,1,.426.079,1.877,1.877,0,0,1,.74.434,2.03,2.03,0,0,1,.144.152c.012.014.026.03.038.047s.034.045.008.008c.024.032.047.065.069.1a1.926,1.926,0,0,1,.105.176c.018.034.036.069.053.105l.018.041c.012.028-.01-.028.008.022a2.3,2.3,0,0,1,.126.48c-.008-.053,0,.045.006.065l.006.118a2.325,2.325,0,0,1-.01.265.3.3,0,0,0,.3.3,2.679,2.679,0,0,1,.442,0c.01,0,.061.008.006,0l.043.006.1.018a2.039,2.039,0,0,1,.225.061c.032.01.065.022.1.034l.032.012.018.008c.071.032.142.069.209.107s.116.073.172.113.02.014.01.006c.016.012.03.024.047.038s.061.053.089.079c.051.049.1.1.148.152.026.03.053.061.079.093-.022-.028.032.047.043.063a1.862,1.862,0,0,1,.116.192c.02.039.041.079.061.12a.6.6,0,0,1,.032.081c.026.071.049.144.069.219.01.043.02.083.028.126a.453.453,0,0,1,.008.047c0,.014.01.073.006.03a2.337,2.337,0,0,1,0,.476c0,.006-.008.059,0,.012,0,.02-.006.043-.01.063-.008.047-.018.093-.028.138a1.861,1.861,0,0,1-.079.255l-.018.045c-.01.026.008-.014-.014.028s-.036.075-.057.113a2.027,2.027,0,0,1-.152.243.3.3,0,0,0,.109.415,2.4,2.4,0,0,1,.393.229c.049.034.016.012.006,0,.014.012.028.024.045.036s.057.049.085.075a2.223,2.223,0,0,1,.166.172c.022.024.043.051.063.077-.03-.038.026.036.036.053.045.067.087.136.126.207.018.034.034.067.051.1,0,.006.028.061.014.028s.01.022.012.03a2.412,2.412,0,0,1,.077.233c.018.071.032.142.045.215.008.051,0-.043,0,.008,0,.02,0,.041.006.059,0,.045.006.089.008.136a2.12,2.12,0,0,1-.006.227c0,.02,0,.041-.006.059s-.008.069,0,.032,0,.024-.006.032c0,.024-.008.049-.014.073-.016.077-.036.152-.059.225-.01.032-.022.063-.032.1s-.014.036-.02.053.014-.03-.01.02c-.032.069-.067.136-.105.2-.02.032-.041.065-.061.1s-.02.03-.032.047-.047.065-.026.039-.01.012-.01.014c-.018.022-.036.045-.055.065s-.057.063-.087.093a2.131,2.131,0,0,1-.188.17c-.038.03.034-.024-.006,0-.018.014-.039.028-.057.041-.034.024-.071.047-.107.069a2.24,2.24,0,0,1-.239.126.305.305,0,0,0-.109.415.31.31,0,0,0,.415.109,2.481,2.481,0,0,0,0-4.5l.109.415a2.479,2.479,0,0,0-1.119-3.732,2.449,2.449,0,0,0-1.131-.166l.3.3a2.482,2.482,0,0,0-3.9-2.251l.415.109a2.483,2.483,0,0,0-4.5,0l.415-.109a2.479,2.479,0,0,0-3.732,1.119,2.449,2.449,0,0,0-.166,1.131l.3-.3A2.482,2.482,0,0,0,69.121,75l.109-.415a2.484,2.484,0,0,0,0,4.5l-.109-.415A2.479,2.479,0,0,0,70.244,82.4a2.449,2.449,0,0,0,1.131.166l-.3-.3a2.482,2.482,0,0,0,3.9,2.251l-.415-.109a2.481,2.481,0,0,0,4.5,0l-.415.109A2.479,2.479,0,0,0,82.365,83.4a2.449,2.449,0,0,0,.166-1.131l-.3.3a2.482,2.482,0,0,0,2.251-3.9.313.313,0,0,0-.415-.109A.3.3,0,0,0,83.952,78.976Z" transform="translate(-67.3 -67.837)" fill="#fff" stroke="#fff" stroke-width="0.3"/>
        </g>
      </g>
      <g id="Group_6255" data-name="Group 6255" transform="translate(5.289 5.287)">
        <g id="Group_6254" data-name="Group 6254">
          <path id="Path_30613" data-name="Path 30613" d="M353.976,347.148l-.673.673-1.617,1.617-1.945,1.945-1.684,1.684c-.275.275-.558.54-.824.824l-.011.011a.337.337,0,0,0,.477.477l.673-.673,1.617-1.617,1.945-1.945,1.684-1.684c.275-.275.558-.54.824-.824l.011-.011a.344.344,0,0,0,0-.477.34.34,0,0,0-.477,0Z" transform="translate(-347.125 -347.05)" fill="#fff" stroke="#fff" stroke-width="0.3"/>
        </g>
      </g>
      <g id="Group_6257" data-name="Group 6257" transform="translate(5.563 5.559)">
        <g id="Group_6256" data-name="Group 6256">
          <path id="Path_30614" data-name="Path 30614" d="M349.131,348.3c0,.027,0,.052,0,.077,0,.054.011-.052,0,0a1.234,1.234,0,0,1-.032.131l-.02.056c.023-.063,0,0-.007.014a1.421,1.421,0,0,1-.074.126c-.032.045.052-.054-.009.011-.014.013-.025.029-.038.043s-.056.054-.086.079c.052-.043,0,0-.014.007a.575.575,0,0,1-.063.038l-.052.027c-.061.034.045-.009-.029.011a1.086,1.086,0,0,1-.115.032s-.095.013-.045.009-.023,0-.032,0c-.047,0-.092,0-.14,0,.063,0,.013,0,0,0-.029-.007-.059-.011-.088-.02s-.038-.014-.056-.018c-.088-.025.034.018-.016,0a.933.933,0,0,1-.115-.063l-.047-.034c.05.036.009.009,0,0-.038-.036-.077-.074-.113-.113s.027.043,0,0l-.041-.061a.907.907,0,0,1-.054-.1c.027.063-.016-.052-.02-.072s-.011-.049-.016-.074c-.016-.07,0,.047,0-.032v-.124c0-.065,0-.018,0,0l.014-.074c.011-.043.025-.086.038-.128,0,.013-.029.056,0,0a.83.83,0,0,1,.043-.077c.009-.016.074-.1.031-.052a1.1,1.1,0,0,1,.1-.106c.014-.014.029-.025.045-.038-.047.041-.009.007,0,0,.043-.025.083-.05.126-.072.081-.043-.038.011.013-.007.023-.009.047-.016.07-.022a.721.721,0,0,1,.117-.025c-.07.011.059,0,.079,0l.063,0c.025,0,.02,0-.014,0a.321.321,0,0,1,.045.009,1.262,1.262,0,0,1,.158.045c-.013,0-.056-.029,0,0,.025.014.052.027.077.043s.032.02.05.032c.072.045-.038-.041.025.018.036.034.07.068.1.1s.009.011,0,0a.658.658,0,0,1,.047.072c.009.016.02.034.029.052s.034.081.014.027a1.262,1.262,0,0,1,.045.158c0,.009.009.072.007.029s0,.068,0,.079a.338.338,0,1,0,.675,0,1.362,1.362,0,0,0-.894-1.263,1.339,1.339,0,0,0-1.461.392,1.339,1.339,0,1,0,2.355.871.338.338,0,0,0-.675,0Z" transform="translate(-347.13 -346.955)" fill="#fff"/>
        </g>
      </g>
      <g id="Group_6259" data-name="Group 6259" transform="translate(9.765 9.761)">
        <g id="Group_6258" data-name="Group 6258">
          <path id="Path_30615" data-name="Path 30615" d="M560.131,559.3c0,.027,0,.052,0,.077,0,.054.011-.052,0,0a1.241,1.241,0,0,1-.032.131l-.02.056c.023-.063,0,0-.007.014a1.421,1.421,0,0,1-.074.126c-.031.045.052-.054-.009.011-.014.013-.025.029-.038.043s-.056.054-.086.079c.052-.043,0,0-.013.007a.585.585,0,0,1-.063.038l-.052.027c-.061.034.045-.009-.029.011a1.082,1.082,0,0,1-.115.032s-.095.013-.045.009-.023,0-.032,0c-.047,0-.092,0-.14,0,.063,0,.013,0,0,0-.029-.007-.059-.011-.088-.02s-.038-.014-.056-.018c-.088-.025.034.018-.016,0a.933.933,0,0,1-.115-.063l-.047-.034c.049.036.009.009,0,0-.038-.036-.077-.074-.113-.113s.027.043,0,0l-.041-.061a.922.922,0,0,1-.054-.1c.027.063-.016-.052-.02-.072s-.011-.049-.016-.074c-.016-.07,0,.047,0-.032v-.124c0-.065,0-.018,0,0l.013-.074c.011-.043.025-.086.038-.128,0,.013-.029.056,0,0a.849.849,0,0,1,.043-.077c.009-.016.074-.1.032-.052a1.106,1.106,0,0,1,.1-.106c.014-.013.029-.025.045-.038-.047.04-.009.007,0,0,.043-.025.083-.05.126-.072.081-.043-.038.011.014-.007.022-.009.047-.016.07-.022a.721.721,0,0,1,.117-.025c-.07.011.059,0,.079,0l.063,0c.025,0,.02,0-.014,0a.327.327,0,0,1,.045.009,1.267,1.267,0,0,1,.158.045c-.013,0-.056-.029,0,0,.025.014.052.027.077.043l.05.032c.072.045-.038-.041.025.018.036.034.07.068.1.1s.009.011,0,0c.016.025.034.047.047.072s.02.034.029.052.034.081.013.027a1.246,1.246,0,0,1,.045.158c0,.009.009.072.007.029s0,.068,0,.079a.338.338,0,0,0,.675,0,1.362,1.362,0,0,0-.894-1.263,1.339,1.339,0,0,0-1.461.392,1.339,1.339,0,1,0,2.355.871.338.338,0,1,0-.675,0Z" transform="translate(-558.13 -557.955)" fill="#fff"/>
        </g>
      </g>
    </g>
  </g>
</svg>
